<svg style="width: 12px; height: 12px; color: #e78a53;"
    xmlns="http://www.w3.org/2000/svg" fill="none" viewBox="0 0 111 111">
    <path fill="currentColor" d="M55.6214 0c7.9234 14.4354 0 31.8669 0 52.2857-2.1799-5.2232-4.8585-15.0632-5.0402-26.2565C50.4453 17.6547 51.7072 8.52269 55.6214 0Z"></path>
    <path fill="currentColor" d="M36.7436 3.26401C49.1903 14.1362 47.6715 33.288 54.6736 52.526c-3.8536-4.1704-9.7622-12.519-13.7725-23.0025-3.0004-7.8434-4.9381-16.8818-4.1575-26.25949Z"></path>
    <path fill="currentColor" d="M20.0089 12.8284c15.4145 5.9595 20.5376 24.4758 33.6972 40.1588-5.0475-2.601-13.4552-8.4252-20.8092-16.9048-5.502-6.3442-10.4142-14.1748-12.888-23.254Z"></path>
    <path fill="currentColor" d="M7.55458 27.5397c16.52312.328 27.67032 15.9754 45.40012 26.2118-5.6327-.7178-15.5254-3.3152-25.336-8.7682-7.3401-4.0798-14.6342-9.7581-20.06412-17.4436Z"></path>
    <path fill="currentColor" d="M.882894 45.6234C16.5218 40.2804 32.3484 51.1716 52.51 54.7266c-5.5385 1.2521-15.7229 2.1948-26.807.4261-8.2927-1.3233-17.0891-4.1644-24.820106-9.5293Z"></path>
    <path fill="currentColor" d="M.798563 64.8983C13.6669 54.5287 32.264 59.3501 52.4257 55.7951c-4.7763 3.0708-14.0241 7.4399-25.0446 9.5688-8.2453 1.5928-17.48286 1.9316-26.582537-.4656Z"></path>
    <path fill="currentColor" d="M7.31175 83.0397C15.8574 68.8943 34.982 67.0643 52.7119 56.8279c-3.438 4.5192-10.6337 11.7878-20.2615 17.5576-7.2032 4.3168-15.7679 7.7946-25.13865 8.6542Z"></path>
    <path fill="currentColor" d="M19.6368 97.8594c3.1923-16.2152 20.5376-24.4758 33.6972-40.1588-1.685 5.4225-5.9607 14.7138-13.0345 23.4285-5.2924 6.5202-12.151 12.7175-20.6627 16.7303Z"></path>
    <path fill="currentColor" d="M36.2872 107.57c-2.5461-16.3292 10.9279-30.0241 17.93-49.2621.2712 5.6718-.5689 15.8652-4.2355 26.4737-2.7432 7.937-7.0686 16.1064-13.6945 22.7884Z"></path>
    <path fill="currentColor" d="M55.3787 111c-7.9234-14.4354 0-31.8669 0-52.2857 2.1798 5.2232 4.8585 15.0632 5.0401 26.2565.1359 8.3745-1.1259 17.5062-5.0401 26.0292Z"></path>
    <path fill="currentColor" d="M74.2515 107.736C61.8049 96.8639 63.3237 77.712 56.3216 58.474c3.8535 4.1705 9.7622 12.5191 13.7725 23.0025 3.0003 7.8434 4.9381 16.8818 4.1574 26.2595Z"></path>
    <path fill="currentColor" d="M90.9862 98.1716C75.5718 92.2121 70.4486 73.6958 57.289 58.0128c5.0475 2.601 13.4552 8.4252 20.8092 16.9048 5.502 6.3442 10.4142 14.1748 12.888 23.254Z"></path>
    <path fill="currentColor" d="M103.441 83.4603c-16.5235-.328-27.6707-15.9754-45.4006-26.2118 5.6328.7178 15.5254 3.3152 25.3361 8.7682 7.3401 4.0798 14.6342 9.7581 20.0645 17.4436Z"></path>
    <path fill="currentColor" d="M110.112 65.3766c-15.6386 5.343-31.4653-5.5482-51.6269-9.1032 5.5385-1.2521 15.7229-2.1948 26.807-.4261 8.2928 1.3233 17.0889 4.1644 24.8199 9.5293Z"></path>
    <path fill="currentColor" d="M110.197 46.1017c-12.8687 10.3696-31.4659 5.5482-51.6276 9.1032 4.7763-3.0708 14.0241-7.4399 25.0446-9.5689 8.2453-1.5927 17.483-1.9315 26.583.4657Z"></path>
    <path fill="currentColor" d="M103.683 27.9603c-8.5452 14.1454-27.6699 15.9754-45.3997 26.2118 3.438-4.5192 10.6337-11.7878 20.2615-17.5576 7.2032-4.3168 15.7678-7.7946 25.1382-8.6542Z"></path>
    <path fill="currentColor" d="M91.3583 13.1406c-3.1922 16.2152-20.5376 24.4758-33.6972 40.1588 1.685-5.4225 5.9607-14.7138 13.0345-23.4285 5.2924-6.5202 12.1511-12.7175 20.6627-16.7303Z"></path>
    <path fill="currentColor" d="M74.7079 3.43011C77.2541 19.7592 63.78 33.4541 56.778 52.6922c-.2713-5.6718.5688-15.8652 4.2354-26.4738 2.7432-7.937 7.0686-16.1063 13.6945-22.78829Z"></path>
</svg>