<svg
style="color: #facc15;"
    xmlns="http://www.w3.org/2000/svg"
    fill="none"
    viewBox="0 0 541 474"
>
    <path
        fill="currentColor"
        d="M93.2759 27.9607C93.2759 12.5184 105.804 0 121.259 0h295.817c15.455 0 27.983 12.5184 27.983 27.9607 0 15.4422-12.528 27.9606-27.983 27.9606H121.259c-15.455 0-27.9831-12.5184-27.9831-27.9606Zm0 418.0783c0-15.442 12.5281-27.96 27.9831-27.96h295.817c15.455 0 27.983 12.518 27.983 27.96 0 15.443-12.528 27.961-27.983 27.961H121.259c-15.455 0-27.9831-12.518-27.9831-27.961ZM63.9606 69.236c-16.1904 0-29.3153 13.1145-29.3153 29.2921 0 16.1779 13.1249 29.2919 29.3153 29.2919H474.374c16.191 0 29.316-13.114 29.316-29.2919 0-16.1776-13.125-29.2921-29.316-29.2921H63.9606Zm-29.3153 310.23c0-15.442 12.5283-27.96 27.9828-27.96H475.707c15.454 0 27.983 12.518 27.983 27.96 0 15.443-12.529 27.961-27.983 27.961H62.6281c-15.4545 0-27.9828-12.518-27.9828-27.961Zm-6.6625-238.331C12.5283 141.135 0 153.653 0 169.096c0 15.442 12.5283 27.96 27.9828 27.96H199.913c13.824-23.878 39.661-39.944 69.255-39.944 29.593 0 55.43 16.066 69.254 39.944h174.595c15.455 0 27.983-12.518 27.983-27.96 0-15.443-12.528-27.961-27.983-27.961H27.9828Zm165.7832 69.236H27.9828C12.5283 210.371 0 222.889 0 238.331c0 15.443 12.5283 27.961 27.9828 27.961H194.762c-3.579-9.07-5.545-18.951-5.545-29.292 0-9.337 1.603-18.3 4.549-26.629Zm149.807 55.921c3.579-9.07 5.545-18.951 5.545-29.292 0-9.337-1.603-18.3-4.549-26.629h168.448c15.455 0 27.983 12.518 27.983 27.96 0 15.443-12.528 27.961-27.983 27.961H343.573Zm-140.29 15.978c14.418 20.91 38.549 34.618 65.885 34.618 27.335 0 51.466-13.708 65.884-34.618h177.965c15.455 0 27.983 12.518 27.983 27.96 0 15.443-12.528 27.961-27.983 27.961H27.9828C12.5283 338.191 0 325.673 0 310.23c0-15.442 12.5283-27.96 27.9828-27.96H203.283Z"
    />
</svg>