 <svg
    style="width: 12px; height: 12px; color: #fbc483;"
      xmlns="http://www.w3.org/2000/svg"
      fill="none"
      viewBox="0 0 437 163"
    >
      <path
        fill="currentColor"
        d="M55.6214 26c7.9234 14.4354 0 31.8669 0 52.2857-2.1799-5.2232-4.8585-15.0632-5.0402-26.2565-.1359-8.3745 1.126-17.5065 5.0402-26.0292Z"
      />
      <path
        fill="currentColor"
        d="M36.7436 29.264c12.4467 10.8722 10.9279 30.024 17.93 49.262-3.8536-4.1704-9.7622-12.519-13.7725-23.0025-3.0004-7.8434-4.9381-16.8818-4.1575-26.2595Z"
      />
      <path
        fill="currentColor"
        d="M20.0089 38.8284c15.4145 5.9595 20.5376 24.4758 33.6972 40.1588-5.0475-2.601-13.4552-8.4252-20.8092-16.9048-5.502-6.3442-10.4142-14.1748-12.888-23.254Z"
      />
      <path
        fill="currentColor"
        d="M7.55458 53.5397c16.52312.328 27.67032 15.9754 45.40012 26.2118-5.6327-.7178-15.5254-3.3152-25.336-8.7682-7.3401-4.0798-14.6342-9.7581-20.06412-17.4436Z"
      />
      <path
        fill="currentColor"
        d="M.882894 71.6234C16.5218 66.2804 32.3484 77.1716 52.51 80.7266c-5.5385 1.2521-15.7229 2.1948-26.807.4261-8.2927-1.3233-17.0891-4.1644-24.820106-9.5293Z"
      />
      <path
        fill="currentColor"
        d="M.798563 90.8983C13.6669 80.5287 32.264 85.3501 52.4257 81.7951c-4.7763 3.0708-14.0241 7.4399-25.0446 9.5688-8.2453 1.5928-17.48286 1.9316-26.582537-.4656Z"
      />
      <path
        fill="currentColor"
        d="M7.31175 109.04C15.8574 94.8943 34.982 93.0643 52.7119 82.8279c-3.438 4.5192-10.6337 11.7878-20.2615 17.5571-7.2032 4.317-15.7679 7.795-25.13865 8.655Z"
      />
      <path
        fill="currentColor"
        d="M19.6368 123.859c3.1923-16.215 20.5376-24.4754 33.6972-40.1584-1.685 5.4225-5.9607 14.7138-13.0345 23.4284-5.2924 6.52-12.151 12.718-20.6627 16.73Z"
      />
      <path
        fill="currentColor"
        d="M36.2872 133.57c-2.5461-16.329 10.9279-30.024 17.93-49.2621.2712 5.6718-.5689 15.8651-4.2355 26.4741-2.7432 7.937-7.0686 16.106-13.6945 22.788Z"
      />
      <path
        fill="currentColor"
        d="M55.3787 137c-7.9234-14.435 0-31.867 0-52.2857 2.1798 5.2232 4.8585 15.0632 5.0401 26.2567.1359 8.374-1.1259 17.506-5.0401 26.029Z"
      />
      <path
        fill="currentColor"
        d="M74.2515 133.736c-12.4466-10.872-10.9278-30.024-17.9299-49.262 3.8535 4.1705 9.7622 12.5191 13.7725 23.002 3.0003 7.844 4.9381 16.882 4.1574 26.26Z"
      />
      <path
        fill="currentColor"
        d="M90.9862 124.172c-15.4144-5.96-20.5376-24.4762-33.6972-40.1592 5.0475 2.601 13.4552 8.4252 20.8092 16.9052 5.502 6.344 10.4142 14.174 12.888 23.254Z"
      />
      <path
        fill="currentColor"
        d="M103.441 109.46c-16.5235-.328-27.6707-15.9751-45.4006-26.2115 5.6328.7178 15.5254 3.3152 25.3361 8.7682 7.3401 4.0798 14.6342 9.7583 20.0645 17.4433Z"
      />
      <path
        fill="currentColor"
        d="M110.112 91.3766c-15.6386 5.343-31.4653-5.5482-51.6269-9.1032 5.5385-1.2521 15.7229-2.1948 26.807-.4261 8.2928 1.3233 17.0889 4.1644 24.8199 9.5293Z"
      />
      <path
        fill="currentColor"
        d="M110.197 72.1017c-12.8687 10.3696-31.4659 5.5482-51.6276 9.1032 4.7763-3.0708 14.0241-7.4399 25.0446-9.5689 8.2453-1.5927 17.483-1.9315 26.583.4657Z"
      />
      <path
        fill="currentColor"
        d="M103.683 53.9603c-8.5452 14.1454-27.6699 15.9754-45.3997 26.2118 3.438-4.5192 10.6337-11.7878 20.2615-17.5576 7.2032-4.3168 15.7678-7.7946 25.1382-8.6542Z"
      />
      <path
        fill="currentColor"
        d="M91.3583 39.1406c-3.1922 16.2152-20.5376 24.4758-33.6972 40.1588 1.685-5.4225 5.9607-14.7138 13.0345-23.4285 5.2924-6.5202 12.1511-12.7175 20.6627-16.7303Z"
      />
      <path
        fill="currentColor"
        d="M74.7079 29.4301C77.2541 45.7592 63.78 59.4541 56.778 78.6922c-.2713-5.6718.5688-15.8652 4.2354-26.4738 2.7432-7.937 7.0686-16.1063 13.6945-22.7883ZM139.334 126V37.25h6.25V80l-2.625-2.25h55l-2.5 2.25V37.25h6.25V126h-6.25V81.5l2.5 2.25h-55l2.625-2.25V126h-6.25Zm84.473 0V37.25h6.25V126h-6.25Zm52.34 0-33.875-88.75h6.75l31 82 31-82h6.875l-34 88.75h-7.75Zm53.495 0V37.25h6.25V126h-6.25Zm61.814 2c-8.083 0-15.042-1.875-20.875-5.625s-10.333-9.083-13.5-16c-3.167-6.9167-4.75-15.125-4.75-24.625 0-9.5833 1.583-17.8333 4.75-24.75 3.167-6.9167 7.667-12.25 13.5-16 5.833-3.8333 12.792-5.75 20.875-5.75s15.042 1.9167 20.875 5.75c5.917 3.75 10.417 9.0833 13.5 16 3.167 6.9167 4.75 15.1667 4.75 24.75 0 9.5-1.583 17.7083-4.75 24.625-3.083 6.917-7.583 12.25-13.5 16-5.833 3.75-12.792 5.625-20.875 5.625Zm0-6.125c6.75 0 12.542-1.625 17.375-4.875 4.917-3.25 8.667-7.875 11.25-13.875S423.956 90 423.956 81.75c0-8.3333-1.292-15.5-3.875-21.5s-6.333-10.625-11.25-13.875c-4.833-3.3333-10.625-5-17.375-5-6.667 0-12.458 1.6667-17.375 5-4.833 3.25-8.583 7.875-11.25 13.875-2.583 6-3.875 13.1667-3.875 21.5 0 8.25 1.292 15.375 3.875 21.375 2.667 6 6.417 10.625 11.25 13.875 4.917 3.25 10.708 4.875 17.375 4.875Z"
      />
    </svg>